<svg xmlns="http://www.w3.org/2000/svg" width="23" height="27" fill="none" viewBox="0 0 23 27">
  <path fill="#000" d="M18.893 14.269c-.012-2.214.96-3.882 2.924-5.111-1.098-1.623-2.76-2.515-4.95-2.687-2.075-.17-4.344 1.246-5.175 1.246-.878 0-2.886-1.188-4.466-1.188C3.966 6.581.5 9.21.5 14.557c0 1.58.28 3.213.84 4.894.75 2.213 3.45 7.636 6.267 7.548 1.473-.036 2.514-1.077 4.431-1.077 1.86 0 2.823 1.077 4.466 1.077 2.842-.042 5.285-4.971 5.996-7.191-3.811-1.853-3.607-5.426-3.607-5.54ZM15.585 4.37C17.181 2.418 17.036.64 16.99 0c-1.41.084-3.04.99-3.969 2.103-1.023 1.194-1.624 2.67-1.495 4.335 1.524.12 2.915-.688 4.06-2.067Z"/>
</svg>
