<svg xmlns="http://www.w3.org/2000/svg" width="24" height="25" fill="none" viewBox="0 0 24 25">
  <path fill="#FB8500" d="M8 13.416a1 1 0 1 1 0-2 1 1 0 0 1 0 2Zm0 4a1 1 0 1 1 0-2 1 1 0 0 1 0 2Zm3-1a1 1 0 1 0 2 0 1 1 0 0 0-2 0Zm5 1a1 1 0 1 1 0-2 1 1 0 0 1 0 2Zm-5-5a1 1 0 1 0 2 0 1 1 0 0 0-2 0Zm5 1a1 1 0 1 1 0-2 1 1 0 0 1 0 2Zm-8-6a1 1 0 0 0 0 2h8a1 1 0 1 0 0-2H8Z"/>
  <path fill="#FB8500" fill-rule="evenodd" d="M6 3.416a3 3 0 0 0-3 3v12a3 3 0 0 0 3 3h12a3 3 0 0 0 3-3v-12a3 3 0 0 0-3-3H6Zm12 2H6a1 1 0 0 0-1 1v12a1 1 0 0 0 1 1h12a1 1 0 0 0 1-1v-12a1 1 0 0 0-1-1Z" clip-rule="evenodd"/>
</svg>
