<svg xmlns="http://www.w3.org/2000/svg" width="28" height="28" fill="none" viewBox="0 0 28 28">
  <path stroke="#fff" stroke-linecap="round" stroke-linejoin="round" stroke-width="1.5" d="M10.5 25.667h7c5.833 0 8.167-2.334 8.167-8.167v-7c0-5.833-2.334-8.167-8.167-8.167h-7c-5.833 0-8.167 2.334-8.167 8.167v7c0 5.833 2.334 8.167 8.167 8.167Z"/>
  <path stroke="#fff" stroke-linecap="round" stroke-linejoin="round" stroke-width="1.5" d="M18.083 21.583a2.34 2.34 0 0 0 2.334-2.333V8.75a2.34 2.34 0 0 0-2.334-2.333A2.34 2.34 0 0 0 15.75 8.75v10.5a2.333 2.333 0 0 0 2.333 2.333Zm-8.166 0a2.34 2.34 0 0 0 2.333-2.333v-4.083a2.34 2.34 0 0 0-2.333-2.334 2.34 2.34 0 0 0-2.334 2.334v4.083a2.333 2.333 0 0 0 2.334 2.333Z"/>
</svg>
