<svg width="24" height="25" viewBox="0 0 24 25" fill="none" xmlns="http://www.w3.org/2000/svg">
<path d="M9 22.4156H15C20 22.4156 22 20.4156 22 15.4156V9.41565C22 4.41565 20 2.41565 15 2.41565H9C4 2.41565 2 4.41565 2 9.41565V15.4156C2 20.4156 4 22.4156 9 22.4156Z" stroke="#FB8500" stroke-width="1.5" stroke-linecap="round" stroke-linejoin="round"/>
<path d="M16.28 14.0256C15.15 15.1556 13.53 15.5056 12.1 15.0556L9.51001 17.6356C9.33001 17.8256 8.96001 17.9456 8.69001 17.9056L7.49001 17.7456C7.09001 17.6956 6.73001 17.3156 6.67001 16.9256L6.51001 15.7256C6.47001 15.4656 6.60001 15.0956 6.78001 14.9056L9.36001 12.3256C8.92001 10.8956 9.26001 9.27565 10.39 8.14565C12.01 6.52565 14.65 6.52565 16.28 8.14565C17.9 9.75565 17.9 12.3956 16.28 14.0256Z" stroke="#FB8500" stroke-width="1.5" stroke-miterlimit="10" stroke-linecap="round" stroke-linejoin="round"/>
<path d="M10.45 16.6956L9.60001 15.8356" stroke="#FB8500" stroke-width="1.5" stroke-miterlimit="10" stroke-linecap="round" stroke-linejoin="round"/>
<path d="M13.3945 11.1156H13.4035" stroke="#FB8500" stroke-width="2" stroke-linecap="round" stroke-linejoin="round"/>
</svg>
