<svg xmlns="http://www.w3.org/2000/svg" width="28" height="28" fill="none" viewBox="0 0 28 28">
  <path stroke="#fff" stroke-linecap="round" stroke-miterlimit="10" stroke-width="1.5" d="M14 7.513v3.885m.023-9.065a7.767 7.767 0 0 0-7.77 7.77v2.45c0 .794-.326 1.984-.735 2.66l-1.481 2.474c-.91 1.528-.28 3.231 1.4 3.791a27.23 27.23 0 0 0 17.185 0 2.59 2.59 0 0 0 1.4-3.791l-1.482-2.474c-.408-.676-.735-1.878-.735-2.66v-2.45c-.012-4.27-3.512-7.77-7.782-7.77Z"/>
  <path stroke="#fff" stroke-miterlimit="10" stroke-width="1.5" d="M17.885 21.957A3.899 3.899 0 0 1 14 25.842a3.892 3.892 0 0 1-2.742-1.144c-.7-.7-1.143-1.68-1.143-2.741"/>
</svg>
