<svg xmlns="http://www.w3.org/2000/svg" width="74" height="74" fill="none" viewBox="0 0 74 74">
  <g filter="url(#a)">
    <path fill="#24BEEF" d="M15.863 22.546A18.361 18.361 0 0 1 29.546 8.863a32.642 32.642 0 0 1 14.909 0 18.361 18.361 0 0 1 13.682 13.683 32.643 32.643 0 0 1 0 14.909 18.361 18.361 0 0 1-13.682 13.682 32.643 32.643 0 0 1-14.91 0 18.361 18.361 0 0 1-13.682-13.682 32.643 32.643 0 0 1 0-14.91Z"/>
  </g>
  <rect width="19" height="14.71" x="27.5" y="23.839" fill="#fff" rx="5.047"/>
  <path fill="#fff" d="M27.5 26.038A4.038 4.038 0 0 1 31.538 22h9.878a2.02 2.02 0 0 1 2.02 2.019v1.442a3.28 3.28 0 0 1-3.281 3.28H27.5v-2.703Z"/>
  <path stroke="#24BEEF" stroke-linecap="round" stroke-width="1.226" d="M44.481 24.452H33.629"/>
  <path stroke="#24BEEF" stroke-linecap="round" stroke-width="1.241" d="M41.818 31.194v-1.448"/>
  <circle cx="41.818" cy="29.746" r="1.004" fill="#24BEEF"/>
  <defs>
    <filter id="a" width="73.25" height="73.25" x=".375" y=".688" color-interpolation-filters="sRGB" filterUnits="userSpaceOnUse">
      <feFlood flood-opacity="0" result="BackgroundImageFix"/>
      <feColorMatrix in="SourceAlpha" result="hardAlpha" values="0 0 0 0 0 0 0 0 0 0 0 0 0 0 0 0 0 0 127 0"/>
      <feOffset dy="7.313"/>
      <feGaussianBlur stdDeviation="7.313"/>
      <feColorMatrix values="0 0 0 0 0 0 0 0 0 0 0 0 0 0 0 0 0 0 0.08 0"/>
      <feBlend in2="BackgroundImageFix" result="effect1_dropShadow_174_199"/>
      <feBlend in="SourceGraphic" in2="effect1_dropShadow_174_199" result="shape"/>
    </filter>
  </defs>
</svg>
