<svg xmlns="http://www.w3.org/2000/svg" width="74" height="74" fill="none" viewBox="0 0 74 74">
  <g filter="url(#a)">
    <path fill="#4368C7" d="M15.863 22.546A18.361 18.361 0 0 1 29.546 8.863a32.642 32.642 0 0 1 14.909 0 18.361 18.361 0 0 1 13.682 13.683 32.643 32.643 0 0 1 0 14.909 18.361 18.361 0 0 1-13.682 13.682 32.643 32.643 0 0 1-14.91 0 18.361 18.361 0 0 1-13.682-13.682 32.643 32.643 0 0 1 0-14.91Z"/>
  </g>
  <path fill="#fff" fill-rule="evenodd" d="m33.536 30.738-.49 5.96a.811.811 0 0 1-.875.743l-2.426-.2a.811.811 0 0 1-.742-.875l1.195-14.557a.812.812 0 0 1 .854-.744.809.809 0 0 1 .319-.065h6.897a4.463 4.463 0 0 1 4.463 4.463v.812a4.463 4.463 0 0 1-4.463 4.463h-4.732Z" clip-rule="evenodd"/>
  <path fill="#68BFF0" fill-opacity=".7" fill-rule="evenodd" d="m37.53 33.984-.49 5.96a.811.811 0 0 1-.875.743l-2.426-.2a.811.811 0 0 1-.743-.875l1.196-14.557a.811.811 0 0 1 .875-.743l.033.003a.81.81 0 0 1 .328-.07h5.275a4.463 4.463 0 0 1 4.463 4.464v.811a4.463 4.463 0 0 1-4.463 4.464h-3.174Z" clip-rule="evenodd"/>
  <defs>
    <filter id="a" width="73.25" height="73.25" x=".375" y=".688" color-interpolation-filters="sRGB" filterUnits="userSpaceOnUse">
      <feFlood flood-opacity="0" result="BackgroundImageFix"/>
      <feColorMatrix in="SourceAlpha" result="hardAlpha" values="0 0 0 0 0 0 0 0 0 0 0 0 0 0 0 0 0 0 127 0"/>
      <feOffset dy="7.313"/>
      <feGaussianBlur stdDeviation="7.313"/>
      <feColorMatrix values="0 0 0 0 0 0 0 0 0 0 0 0 0 0 0 0 0 0 0.08 0"/>
      <feBlend in2="BackgroundImageFix" result="effect1_dropShadow_174_184"/>
      <feBlend in="SourceGraphic" in2="effect1_dropShadow_174_184" result="shape"/>
    </filter>
  </defs>
</svg>
