<svg xmlns="http://www.w3.org/2000/svg" width="66" height="20" fill="none" viewBox="0 0 66 20">
  <path fill="#fff" d="M47.941.82A13.556 13.556 0 0 0 43.207 0c-5.22 0-8.907 2.63-8.933 6.405-.032 2.773 2.62 4.336 4.627 5.262 2.058.953 2.747 1.553 2.74 2.405-.013 1.295-1.644 1.882-3.161 1.882-2.085 0-3.224-.29-4.976-1.018l-.649-.303-.74 4.346c1.269.528 3.556.982 5.918 1.021 5.55 0 9.178-2.613 9.22-6.63.046-2.215-1.39-3.889-4.411-5.272-1.837-.897-2.976-1.497-2.976-2.408 0-.806.976-1.667 3.015-1.667a9.625 9.625 0 0 1 3.958.747l.489.219.74-4.2-.127.03ZM61.488.352h-4.079c-1.269 0-2.225.349-2.78 1.608l-7.842 17.77h5.55l1.11-2.913 6.773.006c.16.682.649 2.907.649 2.907h4.894L61.488.353ZM26.768.19h5.288l-3.308 19.386h-5.283L26.767.183V.19ZM13.341 10.874l.548 2.692L19.058.353h5.602l-8.323 19.35h-5.59L6.18 3.318a1.106 1.106 0 0 0-.486-.649A22.668 22.668 0 0 0 .5.747L.572.34h8.512c1.155.045 2.085.407 2.395 1.64l1.86 8.904v-.01h.003Zm41.62 1.978 2.108-5.423c-.026.059.434-1.119.702-1.846l.362 1.673 1.223 5.592H54.96v.004h.003Z"/>
</svg>
