<svg xmlns="http://www.w3.org/2000/svg" width="28" height="28" fill="none" viewBox="0 0 28 28">
  <path stroke="#FB8500" stroke-linecap="round" stroke-linejoin="round" stroke-width="1.5" d="M11.083 16.042c0 1.131.875 2.041 1.949 2.041h2.193c.933 0 1.692-.793 1.692-1.785 0-1.061-.467-1.446-1.155-1.691l-3.512-1.225c-.688-.245-1.155-.619-1.155-1.692 0-.98.758-1.785 1.692-1.785h2.193c1.073 0 1.948.91 1.948 2.042M14 8.75v10.5"/>
  <path stroke="#FB8500" stroke-linecap="round" stroke-linejoin="round" stroke-width="1.5" d="M25.667 14c0 6.44-5.227 11.667-11.667 11.667C7.56 25.667 2.333 20.44 2.333 14 2.333 7.56 7.56 2.333 14 2.333M25.667 7V2.333H21m-1.167 5.834 5.834-5.834"/>
</svg>
