<svg xmlns="http://www.w3.org/2000/svg" width="28" height="28" fill="none" viewBox="0 0 28 28">
  <path fill="#fff" d="M25.667 12.798v2.404a1.2 1.2 0 0 1-1.167 1.19h-2.287c-1.26 0-2.415-.922-2.52-2.182-.07-.735.21-1.423.7-1.902a2.325 2.325 0 0 1 1.68-.7H24.5a1.198 1.198 0 0 1 1.167 1.19Z"/>
  <path fill="#fff" d="M23.882 18.142h-1.669c-2.216 0-4.083-1.669-4.27-3.792a4.104 4.104 0 0 1 1.225-3.29c.747-.77 1.785-1.202 2.905-1.202h1.809c.338 0 .618-.28.583-.618-.257-2.835-2.135-4.772-4.923-5.098a5.334 5.334 0 0 0-.875-.059h-10.5c-.327 0-.642.024-.945.07-2.975.374-4.889 2.59-4.889 5.764v8.166a5.836 5.836 0 0 0 5.834 5.834h10.5c3.266 0 5.518-2.042 5.798-5.157.035-.338-.245-.618-.583-.618Zm-8.715-6.767h-7a.881.881 0 0 1-.875-.875c0-.478.396-.875.875-.875h7c.478 0 .875.397.875.875a.881.881 0 0 1-.875.875Z"/>
</svg>
